<svg xmlns="http://www.w3.org/2000/svg" width="20" height="20" viewBox="0 0 512 512"><path fill="#FFCA4F" d="M256 512c141 0 256-115 256-256S397 0 256 0 0 115 0 256s115 256 256 256z"/><path fill="#FF5B61" d="M369.75 430.03l-19.95-85.46s68.24-65.65 60.6-149.8C402.74 110.6 317.94 57.7 231.87 80.63c-86.07 22.95-100.33 91.9-100.73 103.2-.4 11.32 10.2 40.25 2.54 60.02-7.65 19.76-35.06 50.68-32.5 59.93 2.54 9.24 26.13 10.83 26.13 10.83s.3 9-2.8 10.9c-3.1 1.9-1.3 9.4 3.8 13.5 5.2 4.2 13.8 7 13.8 7s-9.9 2.3-8.6 9.3c1.3 7 4.8 10.5 12.1 10.9 7.4.38 9.3-3.12 10.6.7 1.3 3.85 2.1 4.16 2.1 4.16s-7.3 18.98-.9 33c6.4 14.03 16.3 14.04 27.8 11.17 11.48-2.84 33.8-9.2 33.8-9.2l6 31c6.4 45.3-24.43 68.57-25.1 69.05 18.1 4.02 36.97 6.2 56.3 6.2 57 0 109.68-18.66 152.2-50.18-4.1-2-37-30.36-38.43-31.8z"/><path fill="#EC4B53" d="M159.24 407.65c6.35 10.06 15.35 9.8 25.63 7.23 11.48-2.88 33.8-9.25 33.8-9.25l6.1 31.1c2.18 15.45.02 28.34-3.8 38.63h.02c21.3-30.4 5.6-53.65 8.4-65.2 2.8-11.53 47.4-22.45 56.7-29.62 9.3-7.18 16-26.98 16-26.98s-9.4 14.35-19.4 23.08c-10 8.73-87.5 31.5-102.3 36.5-14.1 4.73-20.7-4.55-21.4-5.5zM210.7 87.73c53.6-19.64 117.1-9.05 155.6 30.34 45.9 46.93 56.6 132.33-23.54 222.7l27 89.26-19.95-85.46s68.3-65.65 60.6-149.8C402.8 110.6 318 57.7 231.9 80.64c-7.6 2.02-14.64 4.42-21.17 7.1z"/><path fill="#FFF" d="M271.64 122.34c27.9 0 50.5 23.1 50.5 51.6 0 19.3-10.35 36.1-25.7 44.97v23.7c0 2.8-2.24 5.2-5 5.2H254.4c-2.77 0-5.02-2.3-5.02-5.1v-22.3c-16.74-8.4-28.26-26-28.26-46.3 0-28.5 22.62-51.6 50.5-51.6z"/><g fill="#FBB429"><path d="M256.2 247.02h30.87c2.23 0 4.05 1.42 4.05 3.15s-1.82 3.14-4.05 3.14c2.23 0 4.05 1.5 4.05 3.2s-1.82 3.2-4.05 3.2c2.23 0 4.05 1.5 4.05 3.2s-1.82 3.2-4.05 3.2H256.2c-2.22 0-4.04-1.4-4.04-3.1s1.82-3.1 4.04-3.1c-2.22 0-4.04-1.44-4.04-3.16 0-1.74 1.82-3.16 4.04-3.16-2.22 0-4.04-1.4-4.04-3.1s1.82-3.1 4.04-3.1zm1.54-74.36l8.02 65.3h11.75l8.1-65.3 2.9.46-8.2 66.74-.1 1.44h-16.9l-.1-1.44-8.2-66.74 2.9-.46z"/><path d="M276.43 164.35l-1.07 7.3 27.43-4.1-37.2 15.53 1.3-10.05-24.4 4.62 33.8-13.3z"/></g><path fill="#FFF" d="M269.25 279.1v.93h-3.06v-.93H265c-1.17 0-2.2-.73-2.66-1.8h-.1c-1.62 0-2.93-1.4-2.93-3.16 0-1.1.6-2.08 1.4-2.64h-4.5c-1.6 0-2.9-1.42-2.9-3.17 0-1.74 1.4-3.16 3-3.16h31c1.7 0 3 1.42 3 3.16 0 1.75-1.3 3.17-2.9 3.17h-4.5c.8.56 1.3 1.53 1.3 2.64 0 1.75-1.3 3.17-2.9 3.17h-.1c-.5 1.1-1.5 1.8-2.7 1.8h-1.2v1H274v-.9h-4.74z"/></svg>