<svg xmlns="http://www.w3.org/2000/svg" width="25" height="25" viewBox="0 0 512 512"><path fill="#434C6D" d="M317.8 105.96c-2.27 0-4.53-.87-6.25-2.6L256 47.83l-55.55 55.55a8.818 8.818 0 0 1-12.48 0 8.8 8.8 0 0 1 0-12.48l61.84-61.86c3.5-3.45 9.1-3.45 12.5 0 .3.28.5.57.8.87l61 61c3.5 3.5 3.5 9.1 0 12.5-1.7 1.7-4 2.6-6.2 2.6"/><path fill="#724530" d="M0 485.55h512V97.13H0"/><path fill="#542D1E" d="M0 109.6l29.07 29.08c1.72 1.72 3.98 2.6 6.24 2.6s4.6-.88 6.3-2.6a8.73 8.73 0 0 0 0-12.48L12.5 97.13H0v12.48zm512-12.47h-12.48l-29.07 29.07a8.818 8.818 0 0 0 0 12.48 8.818 8.818 0 0 0 6.24 2.6c2.2 0 4.5-.88 6.2-2.6L512 109.6V97.14zm0 375.93L482.93 444c-3.45-3.46-9.03-3.46-12.48 0s-3.45 9.02 0 12.47l29.07 29.07H512v-12.48zM29.07 444L0 473.05v12.48h12.48l29.07-29.06a8.842 8.842 0 0 0 0-12.5 8.836 8.836 0 0 0-12.48 0"/><path fill="#ECE8D8" d="M35.3 450.23h441.4v-317.8H35.3"/><path fill="#F0CE49" d="M317.8 229.54c0-34.12-27.67-61.8-61.8-61.8s-61.8 27.68-61.8 61.8 27.67 61.8 61.8 61.8 61.8-27.67 61.8-61.8"/><path fill="#F8E7A1" d="M229.52 238.37c-4.9 0-8.83-3.94-8.83-8.83 0-19.47 15.8-35.3 35.3-35.3 4.8 0 8.8 3.94 8.8 8.82s-4 8.83-8.9 8.83c-9.8 0-17.7 7.9-17.7 17.6 0 4.9-3.97 8.8-8.8 8.8m26.5 26.5c-4.9 0-8.88-4-8.88-8.9s3.95-8.85 8.83-8.85c9.72 0 17.64-7.93 17.64-17.67 0-4.86 3.93-8.8 8.8-8.8s8.84 3.95 8.84 8.83c0 19.5-15.84 35.33-35.3 35.33"/><path fill="#C9B693" d="M264.83 361.96h-88.28c-4.88 0-8.83-3.95-8.83-8.83s3.95-8.83 8.83-8.83h88.28c4.88 0 8.83 3.95 8.83 8.83s-3.95 8.83-8.83 8.83m-123.6 0H123.6c-4.9 0-8.84-3.95-8.84-8.83s3.94-8.83 8.83-8.83h17.6c4.9 0 8.8 3.95 8.8 8.83s-4 8.83-8.9 8.83m264.9 35.3h-97.1c-4.9 0-8.85-3.94-8.85-8.82s3.94-8.83 8.83-8.83H406c4.9 0 8.84 4 8.84 8.9s-3.96 8.9-8.84 8.9m-8.83-26.5c-2.25 0-4.5-.83-6.23-2.6l-13.74-13.8c-8.74 2.17-21.73 1.8-33.85-7.74l-20.7 13.8a8.808 8.808 0 0 1-12.23-2.47 8.846 8.846 0 0 1 2.45-12.25l26.47-17.7c3.6-2.4 8.43-1.8 11.37 1.4 12.2 13.2 24.7 7 24.9 6.98a8.81 8.81 0 0 1 10.2 1.66l17.7 17.65c3.46 3.48 3.46 9.06 0 12.5-1.7 1.7-3.97 2.6-6.23 2.6m-203 26.47h-70.6c-4.9 0-8.84-3.94-8.84-8.82s3.94-8.82 8.83-8.82h70.6c4.9 0 8.8 4 8.8 8.87s-3.95 8.83-8.83 8.83m70.6 0h-35.3c-4.9 0-8.85-3.96-8.85-8.84s3.94-8.85 8.8-8.85h35.3c4.9 0 8.86 4 8.86 8.86s-4 8.83-8.84 8.83"/><path fill="#D3B434" d="M416.6 195.45l3.04-1.2H306.67c7 10 11.12 22.16 11.12 35.3 0 13.13-4.2 25.3-11.2 35.3h113l-3.1-1.2c-30.8-12.32-30.8-55.9 0-68.2M95.9 263.4l-3.6 1.45h113c-7-10-11.13-22.17-11.13-35.3 0-13.14 4.1-25.3 11.1-35.32H92.37l3.6 1.45c30.58 12.23 30.58 55.5 0 67.73"/></svg>