<svg xmlns="http://www.w3.org/2000/svg" width="25" height="25" viewBox="0 0 509.35 509.35"><path fill="#5D647F" d="M398.45 210.65c0-2.3-.98-4.46-2.7-5.97-1.7-1.52-4-2.23-6.24-1.96l-271.74 32c-4.02.47-7.06 3.9-7.06 7.94v72c0 31.57 90.5 40 144 40s144-8.43 144-40v-.02l-.23-104z"/><path fill="#68748D" d="M398.45 234.66h-144v120h.22c52.1 0 139.25-8 143.78-37.58v-82.42z"/><path fill="#74829C" d="M493.13 166.47L288.4 96.27c-21.75-7.45-45.7-7.45-67.45 0l-204.72 70.2C6.37 169.85 0 178.77 0 189.17c0 10.42 6.38 19.33 16.23 22.7l204.72 70.2c10.87 3.73 22.3 5.6 33.72 5.6 11.43 0 22.86-1.87 33.73-5.6l204.73-70.2c9.85-3.37 16.22-12.28 16.22-22.7 0-10.4-6.37-19.32-16.23-22.7z"/><path fill="#5C546A" d="M406.45 362.66c-4.42 0-8-3.58-8-8V250.13c0-3.42-2.17-6.46-5.4-7.57l-141.2-48.4c-4.17-1.44-6.4-6-4.97-10.17 1.44-4.2 5.98-6.46 10.17-5l141.18 48.4a24 24 0 0 1 16.22 22.7v104.53c0 4.42-3.57 8-8 8z"/><path fill="#FFE671" d="M414.45 418.66h-16c-4.42 0-8-3.58-8-8v-48c0-8.84 7.17-16 16-16 8.84 0 16 7.16 16 16v48c0 4.42-3.58 8-8 8z"/><path fill="#5D647F" d="M254.67 322.66c58.04 0 116.57-8.8 143.96-25.8l-.04-21.9c-.9 10.94-51.6 31.7-143.96 31.7-93.17 0-144-21.14-144-32v22.17c27.38 17.02 85.93 25.83 144 25.83z"/><path fill="#5C546A" d="M398.45 296.96l.18-.1-.04-21.9c-.05.13-.15.27-.18.4v21.6zm-144 9.7c-93.02-.04-143.78-21.15-143.78-32v22.17c27.34 17 85.78 25.8 143.78 25.83v-16z"/><ellipse cx="254.67" cy="186.66" fill="#5D647F" rx="32" ry="16"/><path fill="#FFCD00" d="M390.45 362.66v48c0 4.42 3.58 8 8 8h8v-72c-8.83 0-16 7.16-16 16z"/></svg>