<svg xmlns="http://www.w3.org/2000/svg" width="25" height="25" viewBox="0 0 504 504"><circle cx="252" cy="252" r="252" fill="#90DFAA"/><path fill="#324A5E" d="M94.5 94.5h315v315h-315z"/><path fill="#FFF" d="M122.1 168.6H382v213.3H122.1zm0-50.6h32.5v19.2h-32.5z"/><path fill="#F9B54C" d="M175.7 118h32.5v19.2h-32.5z"/><path fill="#54C0EB" d="M229.4 118h32.5v19.2h-32.5zm10.2 198l53.1-53.1c13.5 3.7 28.5.2 39.1-10.4s14-25.6 10.4-39.1l-24.8 24.8-28.3-28.3 24.8-24.8c-13.5-3.7-28.5-.2-39.1 10.4-10.6 10.6-14 25.6-10.4 39.1l-53.1 53.1c-13.5-3.7-28.5-.2-39.1 10.4s-14 25.6-10.4 39.1l24.8-24.8 28.3 28.3-24.8 24.8c13.5 3.7 28.5.2 39.1-10.4 10.6-10.6 14.1-25.6 10.4-39.1z"/><path fill="#2B3B4E" d="M258.8 265.45L242.24 282l-10.82-10.82 16.54-16.55z"/><path fill="#324A5E" d="M171.6 183.6l-11.3 11.3 8.3 14.6 14.7 8.3 50.7 50.7 11.3-11.2-50.8-50.7-8.2-14.7"/><path fill="#F1543F" d="M254.34 269.85l78.56 78.56-7.78 7.8-78.56-78.55z"/><path fill="#FF7058" d="M242.4 281.8c-1.3 1.3-2.2 2.8-2.8 4.4l77 77c1.6-.6 3.1-1.5 4.4-2.8l4.2-4.2-78.6-78.6-4.2 4.2z"/><path fill="#F1543F" d="M244.4 303.9l54.4 54.4c5.2 5.2 12.3 6.8 17.8 4.8l-77-77c-2 5.6-.4 12.7 4.8 17.8z"/><path fill="#FF7058" d="M258.5 265.7l-4.2 4.2 78.6 78.6 4.2-4.2c1.3-1.3 2.2-2.8 2.8-4.4l-77-77c-1.6.6-3.1 1.5-4.4 2.8z"/><path fill="#F1543F" d="M262.9 262.9l77 77c2.1-5.5.4-12.6-4.8-17.8l-54.4-54.4c-5.2-5.2-12.3-6.9-17.8-4.8z"/></svg>