<svg xmlns="http://www.w3.org/2000/svg" width="15" height="15" viewBox="0 0 512 512"><g fill="#F2F2F2"><path d="M484.97 122.8L452.3 451.03H59.7L33.4 129.16 256 253.8"/><path d="M473.9 60.98L256 265.66 38.1 60.98H256"/></g><path fill="#F14336" d="M59.7 155.5V451H24.15C10.8 451.02 0 440.22 0 426.88v-314.9l39 1.05 20.7 42.46z"/><path fill="#D32E2A" d="M512 111.97v314.9c0 13.34-10.8 24.15-24.15 24.15H452.3V155.5l19.68-46.53 40.02 3z"/><path fill="#F14336" d="M512 85.12v26.85l-59.7 43.52L256 298.53 59.7 155.5 0 111.96V85.12C0 71.8 10.8 60.98 24.14 60.98H38.1L256 219.78 473.9 61h13.95C501.2 61 512 71.8 512 85.14z"/><path fill="#D32E2A" d="M59.7 155.5L0 146.23v-34.27"/></svg>