<svg xmlns="http://www.w3.org/2000/svg" width="20" height="20" viewBox="0 0 52 52"><path fill="#C7CAC7" d="M48.87 22.9c-4.64-.9-6.77-6.32-3.97-10.13l1.96-2.68-4.24-4.27-2.64 1.78c-3.92 2.67-9.26.33-9.98-4.34L29.5 0h-6l-.78 4.04c-.87 4.54-6.1 6.7-9.93 4.12l-3.44-2.3-4.24 4.23 1.96 2.65c2.8 3.8.66 9.24-3.98 10.13L0 23.5v6l3.28.5c4.68.72 7 6.06 4.35 9.98l-1.78 2.64 4.24 4.24 2.65-1.96c3.8-2.8 9.24-.67 10.13 3.97l.6 3.13h6l.34-2.3c.74-4.8 6.28-7.08 10.17-4.22l1.9 1.38 4.23-4.24-1.78-2.64c-2.65-3.9-.32-9.26 4.35-9.98l3.3-.5v-6l-3.14-.6zM26.5 31c-2.48 0-4.5-2.02-4.5-4.5s2.02-4.5 4.5-4.5 4.5 2.02 4.5 4.5-2.02 4.5-4.5 4.5z"/><path fill="#556080" d="M26.5 17c-5.25 0-9.5 4.25-9.5 9.5s4.25 9.5 9.5 9.5 9.5-4.25 9.5-9.5-4.25-9.5-9.5-9.5zm0 14c-2.48 0-4.5-2.02-4.5-4.5s2.02-4.5 4.5-4.5 4.5 2.02 4.5 4.5-2.02 4.5-4.5 4.5z"/></svg>